<?xml version="1.0" standalone="no"?><svg xmlns="http://www.w3.org/2000/svg" viewBox="0 0 1440 320"><path fill="#ff5500" fill-opacity="1" d="M0,256L34.3,261.3C68.6,267,137,277,206,261.3C274.3,245,343,203,411,165.3C480,128,549,96,617,101.3C685.7,107,754,149,823,181.3C891.4,213,960,235,1029,224C1097.1,213,1166,171,1234,170.7C1302.9,171,1371,213,1406,234.7L1440,256L1440,0L1405.7,0C1371.4,0,1303,0,1234,0C1165.7,0,1097,0,1029,0C960,0,891,0,823,0C754.3,0,686,0,617,0C548.6,0,480,0,411,0C342.9,0,274,0,206,0C137.1,0,69,0,34,0L0,0Z"></path></svg>